<svg xmlns="http://www.w3.org/2000/svg" xmlns:xlink="http://www.w3.org/1999/xlink" version="1.1" width="256" height="256" viewBox="0 0 256 256" xml:space="preserve">

<defs>
</defs>
<g style="stroke: none; stroke-width: 0; stroke-dasharray: none; stroke-linecap: butt; stroke-linejoin: miter; stroke-miterlimit: 10; fill: none; fill-rule: nonzero; opacity: 1;" transform="translate(1.4065934065934016 1.4065934065934016) scale(2.81 2.81)" >
	<circle cx="45" cy="45" r="45" style="stroke: none; stroke-width: 1; stroke-dasharray: none; stroke-linecap: butt; stroke-linejoin: miter; stroke-miterlimit: 10; fill: rgb(32,196,203); fill-rule: nonzero; opacity: 1;" transform="  matrix(1 0 0 1 0 0) "/>
	<path d="M 60.735 38.015 c -3.621 -6.727 -10.727 -11.301 -18.902 -11.301 s -15.281 4.574 -18.902 11.301 c -5.272 0.39 -9.431 4.78 -9.431 10.152 c 0 5.372 4.159 9.762 9.431 10.152 c 3.621 6.727 10.727 11.301 18.902 11.301 s 15.281 -4.574 18.902 -11.301 c 5.272 -0.39 9.431 -4.78 9.431 -10.152 C 70.167 42.795 66.007 38.404 60.735 38.015 z M 32.435 41.817 c 0 -2.185 1.771 -3.955 3.955 -3.955 c 2.184 0 3.955 1.771 3.955 3.955 c 0 2.184 -1.771 3.955 -3.955 3.955 C 34.206 45.772 32.435 44.001 32.435 41.817 z M 41.833 62.685 c -4.012 0 -7.265 -3.252 -7.265 -7.265 h 14.529 C 49.098 59.432 45.846 62.685 41.833 62.685 z M 47.276 45.772 c -2.184 0 -3.955 -1.771 -3.955 -3.955 c 0 -2.185 1.771 -3.955 3.955 -3.955 c 2.184 0 3.955 1.771 3.955 3.955 C 51.232 44.001 49.461 45.772 47.276 45.772 z" style="stroke: none; stroke-width: 1; stroke-dasharray: none; stroke-linecap: butt; stroke-linejoin: miter; stroke-miterlimit: 10; fill: rgb(27,167,173); fill-rule: nonzero; opacity: 1;" transform=" matrix(1 0 0 1 0 0) " stroke-linecap="round" />
	<path d="M 64.069 34.681 C 60.448 27.954 53.342 23.38 45.167 23.38 s -15.281 4.574 -18.902 11.301 c -5.272 0.39 -9.431 4.78 -9.431 10.152 c 0 5.372 4.159 9.762 9.431 10.152 c 3.621 6.727 10.727 11.301 18.902 11.301 s 15.281 -4.574 18.902 -11.301 c 5.272 -0.39 9.431 -4.78 9.431 -10.152 C 73.5 39.462 69.341 35.071 64.069 34.681 z M 35.768 38.483 c 0 -2.185 1.771 -3.955 3.955 -3.955 c 2.184 0 3.955 1.771 3.955 3.955 c 0 2.184 -1.771 3.955 -3.955 3.955 C 37.539 42.439 35.768 40.668 35.768 38.483 z M 45.167 59.351 c -4.012 0 -7.265 -3.252 -7.265 -7.265 h 14.529 C 52.431 56.099 49.179 59.351 45.167 59.351 z M 50.61 42.439 c -2.184 0 -3.955 -1.771 -3.955 -3.955 c 0 -2.185 1.771 -3.955 3.955 -3.955 c 2.184 0 3.955 1.771 3.955 3.955 C 54.565 40.668 52.794 42.439 50.61 42.439 z" style="stroke: none; stroke-width: 1; stroke-dasharray: none; stroke-linecap: butt; stroke-linejoin: miter; stroke-miterlimit: 10; fill: rgb(255,255,255); fill-rule: nonzero; opacity: 1;" transform=" matrix(1 0 0 1 0 0) " stroke-linecap="round" />
</g>
</svg>